<?xml version="1.0" encoding="UTF-8" standalone="no"?>
<svg
   width="210mm"
   height="297mm"
   viewBox="0 0 210 297"
   version="1.1"
   id="svg1"
   xmlns:inkscape="http://www.inkscape.org/namespaces/inkscape"
   xmlns:sodipodi="http://sodipodi.sourceforge.net/DTD/sodipodi-0.dtd"
   xmlns="http://www.w3.org/2000/svg">
  <g inkscape:label="puzzle" inkscape:groupmode="layer" id="layer1">
    <path
       d="M 11.8355,65.3795 L 75.6103,65.3795 C 75.6103,88.1304 79.1286,90.6582 81.1390,91.9222 C 83.6521,93.5021 85.1600,89.3903 85.6626,90.9703 C 88.3040,87.0543 93.1933,85.3229 97.7104,86.7039 C 102.2276,88.0849 105.3128,92.2544 105.3128,96.9779 C 105.3128,101.7015 102.2276,105.8709 97.7104,107.2520 C 93.1933,108.6330 88.3040,106.9016 85.6626,102.9856 C 85.1600,101.4057 83.6521,100.4538 83.6521,102.0337 C 81.1390,102.0337 79.1286,103.2976 75.6103,105.8255 C 75.6103,109.6173 75.6103,124.7845 75.6103,128.5763 C 71.7838,128.5763 56.4778,128.5763 52.6514,128.5763 C 50.1004,125.0259 48.8249,122.9970 48.8249,120.4610 C 47.2305,120.4610 48.1911,118.9393 49.7855,118.4321 C 53.7373,115.7666 55.4845,110.8326 54.0909,106.2741 C 52.6972,101.7156 48.4896,98.6022 43.7229,98.6022 C 38.9561,98.6022 34.7486,101.7156 33.3549,106.2741 C 31.9612,110.8326 33.7085,115.7666 37.6603,118.4321 C 36.0659,118.9393 40.2153,120.4610 38.6209,122.9970 C 37.3454,125.0259 34.7944,128.5763 11.8355,128.5763 L 11.8355,65.3795 Z"
       style="display:inline;fill:#1e85a3;stroke:#000000;stroke-width:0.5;paint-order:stroke markers fill"
       id="path1"
       inkscape:label="top-left" />
    <path
       d="M 75.6103,65.3795 L 139.3850,65.3795 C 139.3850,88.1304 142.9033,90.6582 144.9138,91.9222 C 147.4269,93.5021 148.9347,89.3903 149.4374,90.9703 C 152.0787,87.0543 156.9680,85.3229 161.4852,86.7039 C 166.0023,88.0849 169.0876,92.2544 169.0876,96.9779 C 169.0876,101.7015 166.0023,105.8709 161.4852,107.2520 C 156.9680,108.6330 152.0787,106.9016 149.4374,102.9856 C 148.9347,101.4057 147.4269,100.4538 147.4269,102.0337 C 144.9138,102.0337 142.9033,103.2976 139.3850,105.8255 C 139.3850,109.6173 139.3850,124.7845 139.3850,128.5763 C 135.5585,128.5763 120.2526,128.5763 116.4261,128.5763 C 113.8751,132.1268 112.5996,134.1557 112.5996,136.6917 C 111.0053,136.6917 111.9659,138.2134 113.5603,138.7206 C 117.5121,141.3861 119.2593,146.3201 117.8656,150.8786 C 116.4720,155.4371 112.2644,158.5505 107.4976,158.5505 C 102.7309,158.5505 98.5233,155.4371 97.1297,150.8786 C 95.7360,146.3201 97.4832,141.3861 101.4350,138.7206 C 99.8407,138.2134 103.9900,136.6917 102.3957,134.1557 C 101.1202,132.1268 98.5692,128.5763 75.6103,128.5763 C 75.6103,124.7845 75.6103,109.6173 75.6103,105.8255 C 79.1286,103.2976 81.1390,102.0337 83.6521,102.0337 C 83.6521,100.4538 85.1600,101.4057 85.6626,102.9856 C 88.3040,106.9016 93.1933,108.6330 97.7104,107.2520 C 102.2276,105.8709 105.3128,101.7015 105.3128,96.9779 C 105.3128,92.2544 102.2276,88.0849 97.7104,86.7039 C 93.1933,85.3229 88.3040,87.0543 85.6626,90.9703 C 85.1600,89.3903 83.6521,93.5021 81.1390,91.9222 C 79.1286,90.6582 75.6103,88.1304 75.6103,65.3795 Z"
       style="display:inline;fill:#2ea21f;stroke:#000000;stroke-width:0.5;paint-order:stroke markers fill"
       id="path2"
       inkscape:label="top-center" />
    <path
       d="M 139.3850,65.3795 L 203.1598,65.3795 L 203.1598,128.5763 C 199.3333,128.5763 184.0274,128.5763 180.2009,128.5763 C 177.6499,125.0259 176.3744,122.9970 176.3744,120.4610 C 174.7800,120.4610 175.7407,118.9393 177.3350,118.4321 C 181.2868,115.7666 183.0341,110.8326 181.6404,106.2741 C 180.2467,101.7156 176.0392,98.6022 171.2724,98.6022 C 166.5057,98.6022 162.2981,101.7156 160.9044,106.2741 C 159.5108,110.8326 161.2580,115.7666 165.2098,118.4321 C 163.6154,118.9393 167.7648,120.4610 166.1704,122.9970 C 164.8949,125.0259 162.3439,128.5763 139.3850,128.5763 C 139.3850,124.7845 139.3850,109.6173 139.3850,105.8255 C 142.9033,103.2976 144.9138,102.0337 147.4269,102.0337 C 147.4269,100.4538 148.9347,101.4057 149.4374,102.9856 C 152.0787,106.9016 156.9680,108.6330 161.4852,107.2520 C 166.0023,105.8709 169.0876,101.7015 169.0876,96.9779 C 169.0876,92.2544 166.0023,88.0849 161.4852,86.7039 C 156.9680,85.3229 152.0787,87.0543 149.4374,90.9703 C 148.9347,89.3903 147.4269,93.5021 144.9138,91.9222 C 142.9033,90.6582 139.3850,88.1304 139.3850,65.3795 Z"
       style="display:inline;fill:#1e85a3;stroke:#000000;stroke-width:0.5;paint-order:stroke markers fill"
       id="path3"
       inkscape:label="top-right" />
    <path
       d="M 11.8355,128.5763 C 34.7944,128.5763 37.3454,125.0259 38.6209,122.9970 C 40.2153,120.4610 36.0659,118.9393 37.6603,118.4321 C 33.7085,115.7666 31.9612,110.8326 33.3549,106.2741 C 34.7486,101.7156 38.9561,98.6022 43.7229,98.6022 C 48.4896,98.6022 52.6972,101.7156 54.0909,106.2741 C 55.4845,110.8326 53.7373,115.7666 49.7855,118.4321 C 48.1911,118.9393 47.2305,120.4610 48.8249,120.4610 C 48.8249,122.9970 50.1004,125.0259 52.6514,128.5763 C 56.4778,128.5763 71.7838,128.5763 75.6103,128.5763 C 75.6103,151.3272 79.1286,153.8551 81.1390,155.1190 C 83.6521,156.6989 85.1600,152.5872 85.6626,154.1671 C 88.3040,150.2511 93.1933,148.5197 97.7104,149.9007 C 102.2276,151.2818 105.3128,155.4512 105.3128,160.1748 C 105.3128,164.8983 102.2276,169.0678 97.7104,170.4488 C 93.1933,171.8298 88.3040,170.0984 85.6626,166.1824 C 85.1600,164.6025 83.6521,163.6506 83.6521,165.2305 C 81.1390,165.2305 79.1286,166.4945 75.6103,169.0223 C 75.6103,172.8141 75.6103,187.9814 75.6103,191.7732 L 11.8355,191.7732 L 11.8355,128.5763 Z"
       style="display:inline;fill:#2ea21f;stroke:#000000;stroke-width:0.5;paint-order:stroke markers fill"
       id="path4"
       inkscape:label="bottom-left" />
    <path
       d="M 75.6103,128.5763 C 98.5692,128.5763 101.1202,132.1268 102.3957,134.1557 C 103.9900,136.6917 99.8407,138.2134 101.4350,138.7206 C 97.4832,141.3861 95.7360,146.3201 97.1297,150.8786 C 98.5233,155.4371 102.7309,158.5505 107.4976,158.5505 C 112.2644,158.5505 116.4720,155.4371 117.8656,150.8786 C 119.2593,146.3201 117.5121,141.3861 113.5603,138.7206 C 111.9659,138.2134 111.0053,136.6917 112.5996,136.6917 C 112.5996,134.1557 113.8751,132.1268 116.4261,128.5763 C 120.2526,128.5763 135.5585,128.5763 139.3850,128.5763 C 139.3850,151.3272 135.8667,153.8551 133.8563,155.1190 C 131.3432,156.6989 129.8353,152.5872 129.3327,154.1671 C 126.6913,150.2511 121.8020,148.5197 117.2849,149.9007 C 112.7677,151.2818 109.6825,155.4512 109.6825,160.1748 C 109.6825,164.8983 112.7677,169.0678 117.2849,170.4488 C 121.8020,171.8298 126.6913,170.0984 129.3327,166.1824 C 129.8353,164.6025 131.3432,163.6506 131.3432,165.2305 C 133.8563,165.2305 135.8667,166.4945 139.3850,169.0223 C 139.3850,172.8141 139.3850,187.9814 139.3850,191.7732 L 75.6103,191.7732 C 75.6103,187.9814 75.6103,172.8141 75.6103,169.0223 C 79.1286,166.4945 81.1390,165.2305 83.6521,165.2305 C 83.6521,163.6506 85.1600,164.6025 85.6626,166.1824 C 88.3040,170.0984 93.1933,171.8298 97.7104,170.4488 C 102.2276,169.0678 105.3128,164.8983 105.3128,160.1748 C 105.3128,155.4512 102.2276,151.2818 97.7104,149.9007 C 93.1933,148.5197 88.3040,150.2511 85.6626,154.1671 C 85.1600,152.5872 83.6521,156.6989 81.1390,155.1190 C 79.1286,153.8551 75.6103,151.3272 75.6103,128.5763 Z"
       style="display:inline;fill:#1e85a3;stroke:#000000;stroke-width:0.5;paint-order:stroke markers fill"
       id="path5"
       inkscape:label="bottom-center" />
    <path
       d="M 139.3850,128.5763 C 162.3439,128.5763 164.8949,125.0259 166.1704,122.9970 C 167.7648,120.4610 163.6154,118.9393 165.2098,118.4321 C 161.2580,115.7666 159.5108,110.8326 160.9044,106.2741 C 162.2981,101.7156 166.5057,98.6022 171.2724,98.6022 C 176.0392,98.6022 180.2467,101.7156 181.6404,106.2741 C 183.0341,110.8326 181.2868,115.7666 177.3350,118.4321 C 175.7407,118.9393 174.7800,120.4610 176.3744,120.4610 C 176.3744,122.9970 177.6499,125.0259 180.2009,128.5763 C 184.0274,128.5763 199.3333,128.5763 203.1598,128.5763 L 203.1598,191.7732 L 139.3850,191.7732 C 139.3850,187.9814 139.3850,172.8141 139.3850,169.0223 C 135.8667,166.4945 133.8563,165.2305 131.3432,165.2305 C 131.3432,163.6506 129.8353,164.6025 129.3327,166.1824 C 126.6913,170.0984 121.8020,171.8298 117.2849,170.4488 C 112.7677,169.0678 109.6825,164.8983 109.6825,160.1748 C 109.6825,155.4512 112.7677,151.2818 117.2849,149.9007 C 121.8020,148.5197 126.6913,150.2511 129.3327,154.1671 C 129.8353,152.5872 131.3432,156.6989 133.8563,155.1190 C 135.8667,153.8551 139.3850,151.3272 139.3850,128.5763 Z"
       style="display:inline;fill:#2ea21f;stroke:#000000;stroke-width:0.5;paint-order:stroke markers fill"
       id="path6"
       inkscape:label="bottom-right" />
  </g>
</svg>
