<?xml version="1.0" encoding="UTF-8" standalone="no"?>
<!-- Created with Inkscape (http://www.inkscape.org/) -->

<svg
   width="210mm"
   height="297mm"
   viewBox="0 0 210 297"
   version="1.1"
   id="svg1"
   sodipodi:docname="6-piece-new.svg"
   inkscape:version="1.4.4 (dcaf3e7d9e, 2026-05-05)"
   xmlns:inkscape="http://www.inkscape.org/namespaces/inkscape"
   xmlns:sodipodi="http://sodipodi.sourceforge.net/DTD/sodipodi-0.dtd"
   xmlns="http://www.w3.org/2000/svg"
   xmlns:svg="http://www.w3.org/2000/svg">
  <sodipodi:namedview
     id="namedview1"
     pagecolor="#ffffff"
     bordercolor="#000000"
     borderopacity="0.25"
     inkscape:showpageshadow="2"
     inkscape:pageopacity="0.0"
     inkscape:pagecheckerboard="0"
     inkscape:deskcolor="#d1d1d1"
     inkscape:document-units="mm"
     inkscape:zoom="1.4307099"
     inkscape:cx="395.25833"
     inkscape:cy="530.1564"
     inkscape:window-width="1866"
     inkscape:window-height="1011"
     inkscape:window-x="54"
     inkscape:window-y="32"
     inkscape:window-maximized="1"
     inkscape:current-layer="layer2" />
  <defs
     id="defs1" />
  <g
     inkscape:label="Layer 1"
     inkscape:groupmode="layer"
     id="layer1">
    <path
       d="m 140.37128,132.33818 c 0.11814,0.1573 0.18603,0.24287 0.18603,0.24287 3.80974,2.84016 -6.25671,8.88985 -7.16597,16.10858 1.10959,12.02055 9.04721,6.47124 9.602,16.8274 1.66439,10.17124 -7.14789,12.18013 -7.14789,12.18013 l -0.45371,5.29787 h 66.50756 v -53.4293 l -16.77468,1.62781 c -9.13856,3.59587 -17.10208,7.51747 -27.74198,1.30587 -3.91839,-1.9592 -10.23808,-1.01158 -17.01136,-0.16123 z"
       style="fill:#1e85a3;stroke-width:14.0333;paint-order:stroke markers fill"
       id="path16"
       inkscape:label="bottom-right" />
    <path
       d="m 140.37128,132.33818 c 6.77328,-0.85035 13.09297,-1.79797 17.01136,0.16123 10.6399,6.2116 18.60342,2.29 27.74198,-1.30587 l 16.77468,-1.62781 V 74.994906 h -57.55256 l -1.1467,13.777453 c 0,0 -6.64083,3.51511 -4.97644,10.542509 2.27834,3.828092 9.23509,13.113632 2.39262,20.510892 -8.09683,1.51815 -1.47154,10.87926 -0.24494,12.51242 z"
       style="fill:#1e85a3;stroke-width:14.0333;paint-order:stroke markers fill"
       id="path15"
       inkscape:label="top-right" />
    <path
       d="m 65.063212,136.56531 c -13.806295,-0.24122 -27.896488,-2.25568 -27.896488,-2.25568 0,0 10.726413,-7.29095 -5.360397,-7.13135 -20.527397,0.73973 -5.540747,7.80056 -5.540747,7.80056 L 9.8991374,135.3566 v 47.63843 H 63.778019 l -0.975651,-7.31996 c 0,0 13.623561,-0.2279 8.445479,-15.20735 -4.416498,-3.00321 -5.870589,-13.62491 -6.184635,-23.90241 z"
       style="fill:#1e85a3;stroke-width:14.0333;paint-order:stroke markers fill"
       id="path14"
       inkscape:label="bottom-left" />
    <path
       d="m 65.063212,136.56531 c 0.314046,10.2775 1.768137,20.8992 6.184635,23.90241 5.178082,14.97945 -8.445479,15.20735 -8.445479,15.20735 l 0.975651,7.31996 h 71.613721 l 0.45371,-5.29787 c 0,0 8.81228,-2.00889 7.14789,-12.18013 -0.55479,-10.35616 -8.49241,-4.80685 -9.602,-16.8274 0.90926,-7.21873 10.97571,-13.26842 7.16597,-16.10858 0,0 -0.0679,-0.0856 -0.18603,-0.24287 -6.65285,0.83523 -13.7432,1.57657 -19.42466,-0.62271 0,0 0.14369,-4.24153 -5.21932,-4.0566 -7.39726,1.84932 -5.88904,6.07767 -5.88904,6.07767 -2.77397,2.58904 -3.35915,2.94118 -9.27696,3.68091 -11.835608,-1.29453 -11.788941,-4.29173 -11.788941,-4.29173 -4.4289,2.90169 -13.998892,3.60924 -23.709147,3.43959 z"
       style="fill:#1e85a3;stroke-width:14.0333;paint-order:stroke markers fill"
       id="path13"
       inkscape:label="bottom-center" />
    <path
       d="M 62.28457,74.994906 H 9.8991374 V 135.3566 L 26.26558,134.97884 c 0,0 -14.98665,-7.06083 5.540747,-7.80056 16.08681,-0.1596 5.360397,7.13135 5.360397,7.13135 0,0 14.090193,2.01446 27.896488,2.25568 -0.343455,-11.23993 0.676445,-22.06791 0.676445,-22.06791 0,0 4.811777,3.86697 6.661092,-8.33851 -1.664384,-10.171225 -8.007263,-7.054862 -8.007263,-7.054862 z"
       style="fill:#1e85a3;stroke-width:14.0333;paint-order:stroke markers fill"
       id="path12"
       inkscape:label="top-left" />
    <path
       d="m 62.28457,74.994906 2.108916,24.109122 c 0,0 6.342879,-3.116363 8.007263,7.054862 -1.849315,12.20548 -6.661092,8.33851 -6.661092,8.33851 0,0 -1.0199,10.82798 -0.676445,22.06791 9.710255,0.16965 19.280247,-0.5379 23.709147,-3.43959 0,0 -0.04667,2.9972 11.788941,4.29173 5.91781,-0.73973 6.50299,-1.09187 9.27696,-3.68091 0,0 -1.50822,-4.22835 5.88904,-6.07767 5.36301,-0.18493 5.21932,4.0566 5.21932,4.0566 5.68146,2.19928 12.77181,1.45794 19.42466,0.62271 -1.2266,-1.63316 -7.85189,-10.99427 0.24494,-12.51242 6.84247,-7.39726 -0.11428,-16.6828 -2.39262,-20.510892 -1.66439,-7.027399 4.97644,-10.542509 4.97644,-10.542509 l 1.1467,-13.777453 z"
       style="fill:#1e85a3;stroke-width:14.0333;paint-order:stroke markers fill"
       id="path11"
       inkscape:label="top-center" />
  </g>
  <g
     inkscape:groupmode="layer"
     id="layer2"
     inkscape:label="Layer 2" />
</svg>
