<?xml version="1.0" encoding="UTF-8" standalone="no"?>
<!-- Created with Inkscape (http://www.inkscape.org/) -->

<svg
   width="210mm"
   height="297mm"
   viewBox="0 0 210 297"
   version="1.1"
   id="svg1"
   inkscape:version="1.4.4 (dcaf3e7d9e, 2026-05-05)"
   sodipodi:docname="puzzle-pieces-6.svg"
   xmlns:inkscape="http://www.inkscape.org/namespaces/inkscape"
   xmlns:sodipodi="http://sodipodi.sourceforge.net/DTD/sodipodi-0.dtd"
   xmlns="http://www.w3.org/2000/svg"
   xmlns:svg="http://www.w3.org/2000/svg">
  <sodipodi:namedview
     id="namedview1"
     pagecolor="#ffffff"
     bordercolor="#000000"
     borderopacity="0.25"
     inkscape:showpageshadow="2"
     inkscape:pageopacity="0.0"
     inkscape:pagecheckerboard="0"
     inkscape:deskcolor="#d1d1d1"
     inkscape:document-units="mm"
     inkscape:zoom="1.0116647"
     inkscape:cx="633.60917"
     inkscape:cy="560.95663"
     inkscape:window-width="1866"
     inkscape:window-height="1011"
     inkscape:window-x="54"
     inkscape:window-y="32"
     inkscape:window-maximized="1"
     inkscape:current-layer="svg1" />
  <defs
     id="defs1" />
  <g
     inkscape:label="puzzle"
     inkscape:groupmode="layer"
     id="layer1">
    <path
       d="m 153.49296,124.64407 -15.90394,34.76687 c 0,0 14.42476,1.4e-4 16.64394,0.37 2.21917,0.36986 2.58899,16.64395 2.58899,16.64395 l -16.64394,2.21899 -0.37001,10.35595 62.1373,0.37001 0.73949,-64.72577 z"
       style="display:inline;fill:#2ea21f;stroke:#000000;stroke-width:2;paint-order:stroke markers fill"
       id="path11"
       inkscape:label="bottom-right" />
    <path
       style="display:inline;fill:#1e85a3;stroke-width:2;paint-order:stroke markers fill;fill-opacity:1;stroke:#000000;stroke-opacity:1"
       d="m 139.39343,177.85929 17.42854,-1.4344 -2.60096,-16.05093 c 0,0 -14.70177,-0.12486 -15.94152,-0.33148 -2.21918,-0.36987 14.47844,-33.32312 14.47844,-33.32312 l 3.08884,-10.44433 -8.92211,5.98692 -21.5411,15.69707 -9.98647,-2.2195 c 0,0 11.83571,-4.06842 -1.10949,-14.79445 -12.94521,-10.72602 -24.411018,-4.80832 -19.232937,5.17798 5.178087,9.9863 5.917767,20.34248 -1.479496,17.75344 -5.725638,-2.00398 -18.122925,-16.27394 -18.122925,-16.27394 l 0.477957,63.55342 c 27.109531,1.20432 36.105141,0.32467 63.463231,0.0415 z"
       id="path8"
       sodipodi:nodetypes="cccscccccssscccc"
       inkscape:label="bottom-center" />
    <path
       id="path9"
       style="display:inline;fill:#2ea21f;stroke:#000000;stroke-width:2;paint-order:stroke markers fill"
       d="m 76.063574,128.75907 -0.664042,-1.49035 -5.865275,-5.21415 H 55.109814 c 0,0 10.097241,11.20096 1.47898,8.50697 -10.215382,-3.19323 0.739778,5.54787 -2.588989,14.79445 -2.219178,8.87671 -15.475696,4.15513 -22.931417,-4.80798 -7.51889,-9.03904 1.849499,-10.35647 1.849499,-10.35647 l -5.547981,-8.13697 H 13.31495 l 0.370003,67.68527 62.506779,0.37 -0.347266,-61.5921 c 0,0 0.07653,0.0849 0.219108,0.24133 z"
       inkscape:label="bottom-left" />
    <path
       style="display:inline;fill:#1e85a3;fill-opacity:1;stroke:#000000;stroke-width:2;stroke-opacity:1;paint-order:stroke markers fill"
       d="m 135.9535,65.379538 7.76697,20.648552 c 0,0 -10.35622,-7.766843 -23.30142,0.740006 -4.43836,11.835617 1.10949,14.054944 1.10949,14.054944 1.10959,4.80822 20.34257,18.12324 24.78092,2.58899 4.1125,-14.393741 8.35598,15.14606 8.61128,19.63797 l 8.67934,0.90264 39.23481,-0.0897 0.32489,-58.483392 z"
       id="path8-6"
       sodipodi:nodetypes="ccccsccccc"
       inkscape:label="top-right" />
    <path
       id="path13"
       style="display:inline;fill:#2ea21f;stroke:#000000;stroke-width:2;paint-order:stroke markers fill"
       d="m 136.45723,66.16067 -63.61679,0.370003 0.973584,14.847156 c -0.0069,0.02998 -0.0058,0.05738 0.0052,0.08165 -4.796172,-0.851422 -9.337723,1.563329 -9.161198,13.92008 0.177172,12.402021 4.067476,12.273051 9.675378,13.044681 l 1.466061,18.76371 -0.7922,-0.70383 0.664042,1.49035 c 1.65077,1.81095 12.241175,13.27277 17.511593,15.11742 7.39726,2.58904 6.657583,-7.76714 1.479496,-17.75344 -5.178081,-9.9863 6.287724,-15.904 19.232934,-5.17798 12.9452,10.72603 1.10949,14.79445 1.10949,14.79445 l 9.98647,2.2195 28.07942,-13.86634 c -0.2553,-4.49191 -2.14499,-34.554788 -6.25749,-20.16104 -4.43835,15.53425 -23.67133,2.21923 -24.78092,-2.58899 0,0 -5.54785,-2.219336 -1.10949,-14.054952 12.9452,-8.506849 23.30142,-0.740006 23.30142,-0.740006 z"
       inkscape:label="top-center" />
    <path
       d="m 11.835453,66.945268 1.479497,55.109302 h 14.054956 l 5.547981,8.13697 c 0,0 -9.368389,1.31743 -1.849499,10.35647 7.455721,8.96311 20.712239,13.68469 22.931417,4.80798 3.328767,-9.24658 -7.626393,-17.98768 2.588989,-14.79445 8.618261,2.69399 -1.47898,-8.50697 -1.47898,-8.50697 h 14.424443 l 6.657475,5.91798 -1.466061,-18.76371 c -4.823304,1.32063 -9.498206,-0.64266 -9.675378,-13.044684 -0.176525,-12.356751 4.365026,-14.771502 9.161198,-13.92008 L 73.232739,67.315271 Z"
       style="display:inline;fill:#1e85a3;stroke-width:2;paint-order:stroke markers fill;fill-opacity:1;stroke:#000000;stroke-opacity:1"
       id="path7"
       inkscape:label="top-left"
       sodipodi:nodetypes="ccccscsccccsccc" />
  </g>
</svg>
